<svg xmlns="http://www.w3.org/2000/svg" id="export" class="canvas" preserveAspectRatio="xMidYMid meet" style="" width="2100" height="196"><rect id="background" fill="#fff" pointer-events="all" width="2100" height="196"/><g id="origin" transform="translate(8.875, 8.875) scale(1)"><g id="clusters" class="clusters"/><g id="edge-paths" class="edge-paths"><defs><marker id="arrowhead-vee" viewBox="0 0 10 10" refX="9" refY="5" markerUnits="strokeWidth" markerWidth="8" markerHeight="6" orient="auto" style="fill: rgb(0, 0, 0);"><path d="M 0 0 L 10 5 L 0 10 L 4 5 z" style="stroke-width: 1;"/></marker><marker id="arrowhead-vee-select" viewBox="0 0 10 10" refX="9" refY="5" markerUnits="strokeWidth" markerWidth="8" markerHeight="6" orient="auto" style="fill: rgb(238, 0, 0);"><path d="M 0 0 L 10 5 L 0 10 L 4 5 z" style="stroke-width: 1;"/></marker></defs><path id="edge-input.1" class="edge-path" d="M49.34375,127.5L51.010416666666664,127.5C52.677083333333336,127.5,56.010416666666664,127.5,59.34375,127.5C62.677083333333336,127.5,66.01041666666667,127.5,69.34375,127.5C72.67708333333333,127.5,76.01041666666667,127.5,79.34375,127.5C82.67708333333333,127.5,86.01041666666667,127.5,87.67708333333333,127.5L89.34375,127.5" style="stroke: rgb(0, 0, 0); stroke-width: 1px; fill: none; marker-end: url(&quot;#arrowhead-vee&quot;);"/><path id="edge-1" class="edge-path" d="M133.859375,127.5L135.52604166666666,127.5C137.19270833333334,127.5,140.52604166666666,127.5,143.859375,127.5C147.19270833333334,127.5,150.52604166666666,127.5,152.19270833333334,127.5L153.859375,127.5" style="stroke: rgb(0, 0, 0); stroke-width: 1px; fill: none; marker-end: url(&quot;#arrowhead-vee&quot;);"/><path id="edge-2" class="edge-path" d="M212.44475446428572,117.5L221.4435453869048,105.16666666666667C230.44233630952382,92.83333333333333,248.43991815476193,68.16666666666667,259.10537574404765,55.833333333333336C269.7708333333333,43.5,273.1041666666667,43.5,274.7708333333333,43.5L276.4375,43.5" style="stroke: rgb(0, 0, 0); stroke-width: 1px; fill: none; marker-end: url(&quot;#arrowhead-vee&quot;);"/><path id="edge-2" class="edge-path" d="M229.6640625,117.5L235.79296875,115C241.921875,112.5,254.1796875,107.5,268.2252604166667,105C282.2708333333333,102.5,298.1041666666667,102.5,313.9375,102.5C329.7708333333333,102.5,345.6041666666667,102.5,362.1816050211589,102.5C378.75904337565106,102.5,396.08058675130206,102.5,413.4021301269531,102.5C430.7236735026042,102.5,448.0452168782552,102.5,465.36676025390625,102.5C482.6883036295573,102.5,500.0098470052083,102.5,517.3313903808594,102.5C534.6529337565104,102.5,551.9744771321615,102.5,564.0028154075397,97.58333333333333C576.031153682918,92.66666666666667,582.7662868580235,82.83333333333333,586.1338534455762,77.91666666666667L589.501420033129,73" style="stroke: rgb(0, 0, 0); stroke-width: 1px; fill: none; marker-end: url(&quot;#arrowhead-vee&quot;);"/><path id="edge-2" class="edge-path" d="M256.4375,127.5L258.1041666666667,127.5C259.7708333333333,127.5,263.1041666666667,127.5,272.6875,127.5C282.2708333333333,127.5,298.1041666666667,127.5,313.9375,127.5C329.7708333333333,127.5,345.6041666666667,127.5,362.1816050211589,127.5C378.75904337565106,127.5,396.08058675130206,127.5,413.4021301269531,127.5C430.7236735026042,127.5,448.0452168782552,127.5,465.36676025390625,127.5C482.6883036295573,127.5,500.0098470052083,127.5,517.3313903808594,127.5C534.6529337565104,127.5,551.9744771321615,127.5,565.1443634033203,127.5C578.3142496744791,127.5,587.3324788411459,127.5,596.3507080078125,127.5C605.3689371744791,127.5,614.3871663411459,127.5,627.5570526123047,127.5C640.7269388834635,127.5,658.0484822591146,127.5,675.3700256347656,127.5C692.6915690104166,127.5,710.0131123860677,127.5,727.1502278645834,127.5C744.287343343099,127.5,761.2400309244791,127.5,778.1927185058594,127.5C795.1454060872396,127.5,812.0980936686198,127.5,829.2352091471354,127.5C846.372324625651,127.5,863.6938680013021,127.5,881.0154113769531,127.5C898.3369547526041,127.5,915.6584981282552,127.5,928.6929677327474,127.5C941.7274373372396,127.5,950.4748331705729,127.5,959.2222290039062,127.5C967.9696248372396,127.5,976.7170206705729,127.5,989.0073852539062,127.5C1001.2977498372396,127.5,1017.1310831705729,127.5,1032.9644165039062,127.5C1048.7977498372395,127.5,1064.631083170573,127.5,1080.4644165039062,127.5C1096.2977498372395,127.5,1112.131083170573,127.5,1127.9644165039062,127.5C1143.7977498372395,127.5,1159.631083170573,127.5,1175.4644165039062,127.5C1191.2977498372395,127.5,1207.131083170573,127.5,1222.9644165039062,127.5C1238.7977498372395,127.5,1254.631083170573,127.5,1266.1459321815157,120.91666666666667C1277.6607811924584,114.33333333333333,1284.8571458810106,101.16666666666667,1288.4553282252866,94.58333333333333L1292.0535105695628,88" style="stroke: rgb(0, 0, 0); stroke-width: 1px; fill: none; marker-end: url(&quot;#arrowhead-vee&quot;);"/><path id="edge-2" class="edge-path" d="M229.6640625,137.5L235.79296875,140C241.921875,142.5,254.1796875,147.5,268.2252604166667,150C282.2708333333333,152.5,298.1041666666667,152.5,313.9375,152.5C329.7708333333333,152.5,345.6041666666667,152.5,362.1816050211589,152.5C378.75904337565106,152.5,396.08058675130206,152.5,413.4021301269531,152.5C430.7236735026042,152.5,448.0452168782552,152.5,465.36676025390625,152.5C482.6883036295573,152.5,500.0098470052083,152.5,517.3313903808594,152.5C534.6529337565104,152.5,551.9744771321615,152.5,565.1443634033203,152.5C578.3142496744791,152.5,587.3324788411459,152.5,596.3507080078125,152.5C605.3689371744791,152.5,614.3871663411459,152.5,627.5570526123047,152.5C640.7269388834635,152.5,658.0484822591146,152.5,675.3700256347656,152.5C692.6915690104166,152.5,710.0131123860677,152.5,727.1502278645834,152.5C744.287343343099,152.5,761.2400309244791,152.5,778.1927185058594,152.5C795.1454060872396,152.5,812.0980936686198,152.5,829.2352091471354,152.5C846.372324625651,152.5,863.6938680013021,152.5,881.0154113769531,152.5C898.3369547526041,152.5,915.6584981282552,152.5,928.6929677327474,152.5C941.7274373372396,152.5,950.4748331705729,152.5,959.2222290039062,152.5C967.9696248372396,152.5,976.7170206705729,152.5,989.0073852539062,152.5C1001.2977498372396,152.5,1017.1310831705729,152.5,1032.9644165039062,152.5C1048.7977498372395,152.5,1064.631083170573,152.5,1080.4644165039062,152.5C1096.2977498372395,152.5,1112.131083170573,152.5,1127.9644165039062,152.5C1143.7977498372395,152.5,1159.631083170573,152.5,1175.4644165039062,152.5C1191.2977498372395,152.5,1207.131083170573,152.5,1222.9644165039062,152.5C1238.7977498372395,152.5,1254.631083170573,152.5,1267.056864420573,152.5C1279.482645670573,152.5,1288.5008748372395,152.5,1297.5191040039062,152.5C1306.537333170573,152.5,1315.5555623372395,152.5,1328.7397715250652,152.5C1341.9239807128906,152.5,1359.274169921875,152.5,1376.6243591308594,152.5C1393.9745483398438,152.5,1411.3247375488281,152.5,1428.6606038411458,152.5C1445.9964701334636,152.5,1463.3180135091145,152.5,1480.6395568847656,152.5C1497.9611002604167,152.5,1515.2826436360676,152.5,1528.3171132405598,152.5C1541.351582845052,152.5,1550.0989786783855,152.5,1558.8463745117188,152.5C1567.593770345052,152.5,1576.3411661783855,152.5,1589.3899586995442,152.5C1602.4387512207031,152.5,1619.7889404296875,152.5,1637.1391296386719,152.5C1654.4893188476562,152.5,1671.8395080566406,152.5,1689.1753743489583,152.5C1706.5112406412761,152.5,1723.832784016927,152.5,1741.1543273925781,152.5C1758.4758707682292,152.5,1775.7974141438801,152.5,1788.2094660312857,144.25C1800.621517918691,136,1808.1240783178507,119.5,1811.8753585174306,111.25L1815.6266387170103,103" style="stroke: rgb(0, 0, 0); stroke-width: 1px; fill: none; marker-end: url(&quot;#arrowhead-vee&quot;);"/><path id="edge-2" class="edge-path" d="M217.40625,137.5L225.578125,144.16666666666666C233.75,150.83333333333334,250.09375,164.16666666666666,266.1822916666667,170.83333333333334C282.2708333333333,177.5,298.1041666666667,177.5,313.9375,177.5C329.7708333333333,177.5,345.6041666666667,177.5,362.1816050211589,177.5C378.75904337565106,177.5,396.08058675130206,177.5,413.4021301269531,177.5C430.7236735026042,177.5,448.0452168782552,177.5,465.36676025390625,177.5C482.6883036295573,177.5,500.0098470052083,177.5,517.3313903808594,177.5C534.6529337565104,177.5,551.9744771321615,177.5,565.1443634033203,177.5C578.3142496744791,177.5,587.3324788411459,177.5,596.3507080078125,177.5C605.3689371744791,177.5,614.3871663411459,177.5,627.5570526123047,177.5C640.7269388834635,177.5,658.0484822591146,177.5,675.3700256347656,177.5C692.6915690104166,177.5,710.0131123860677,177.5,727.1502278645834,177.5C744.287343343099,177.5,761.2400309244791,177.5,778.1927185058594,177.5C795.1454060872396,177.5,812.0980936686198,177.5,829.2352091471354,177.5C846.372324625651,177.5,863.6938680013021,177.5,881.0154113769531,177.5C898.3369547526041,177.5,915.6584981282552,177.5,928.6929677327474,177.5C941.7274373372396,177.5,950.4748331705729,177.5,959.2222290039062,177.5C967.9696248372396,177.5,976.7170206705729,177.5,989.0073852539062,177.5C1001.2977498372396,177.5,1017.1310831705729,177.5,1032.9644165039062,177.5C1048.7977498372395,177.5,1064.631083170573,177.5,1080.4644165039062,177.5C1096.2977498372395,177.5,1112.131083170573,177.5,1127.9644165039062,177.5C1143.7977498372395,177.5,1159.631083170573,177.5,1175.4644165039062,177.5C1191.2977498372395,177.5,1207.131083170573,177.5,1222.9644165039062,177.5C1238.7977498372395,177.5,1254.631083170573,177.5,1267.056864420573,177.5C1279.482645670573,177.5,1288.5008748372395,177.5,1297.5191040039062,177.5C1306.537333170573,177.5,1315.5555623372395,177.5,1328.7397715250652,177.5C1341.9239807128906,177.5,1359.274169921875,177.5,1376.6243591308594,177.5C1393.9745483398438,177.5,1411.3247375488281,177.5,1428.6606038411458,177.5C1445.9964701334636,177.5,1463.3180135091145,177.5,1480.6395568847656,177.5C1497.9611002604167,177.5,1515.2826436360676,177.5,1528.3171132405598,177.5C1541.351582845052,177.5,1550.0989786783855,177.5,1558.8463745117188,177.5C1567.593770345052,177.5,1576.3411661783855,177.5,1589.3899586995442,177.5C1602.4387512207031,177.5,1619.7889404296875,177.5,1637.1391296386719,177.5C1654.4893188476562,177.5,1671.8395080566406,177.5,1689.1753743489583,177.5C1706.5112406412761,177.5,1723.832784016927,177.5,1741.1543273925781,177.5C1758.4758707682292,177.5,1775.7974141438801,177.5,1788.967300415039,177.5C1802.137186686198,177.5,1811.1554158528645,177.5,1820.1736450195312,177.5C1829.191874186198,177.5,1838.2101033528645,177.5,1846.7986450195312,177.5C1855.387186686198,177.5,1863.5460408528645,177.5,1871.7048950195312,177.5C1879.863749186198,177.5,1888.0226033528645,177.5,1900.0186971028645,177.5C1912.0147908528645,177.5,1927.848124186198,177.5,1943.6814575195312,177.5C1959.5147908528645,177.5,1975.348124186198,177.5,1987.1251119709702,167.58333333333334C1998.9020997557425,157.66666666666666,2006.6227419919533,137.83333333333334,2010.4830631100588,127.91666666666667L2014.3433842281643,118" style="stroke: rgb(0, 0, 0); stroke-width: 1px; fill: none; marker-end: url(&quot;#arrowhead-vee&quot;);"/><path id="edge-4" class="edge-path" d="M350.77423469387753,24.5L352.5514455782313,23.583333333333332C354.32865646258506,22.666666666666668,357.88307823129253,20.833333333333332,361.32695578231295,19.916666666666668C364.7708333333333,19,368.1041666666667,19,369.7708333333333,19L371.4375,19" style="stroke: rgb(0, 0, 0); stroke-width: 1px; fill: none; marker-end: url(&quot;#arrowhead-vee&quot;);"/><path id="edge-4" class="edge-path" d="M350.77423469387753,62.5L352.5514455782313,63.416666666666664C354.32865646258506,64.33333333333333,357.88307823129253,66.16666666666667,366.63616497013845,67.08333333333333C375.3892517089844,68,389.34100341796875,68,396.31687927246094,68L403.2927551269531,68" style="stroke: rgb(0, 0, 0); stroke-width: 1px; fill: none; marker-end: url(&quot;#arrowhead-vee&quot;);"/><path id="edge-6" class="edge-path" d="M455.36676025390625,19L457.03342692057294,19C458.70009358723956,19,462.03342692057294,19,465.36676025390625,19C468.70009358723956,19,472.03342692057294,19,473.70009358723956,19L475.36676025390625,19" style="stroke: rgb(0, 0, 0); stroke-width: 1px; fill: none; marker-end: url(&quot;#arrowhead-vee&quot;);"/><path id="edge-8" class="edge-path" d="M559.2960205078125,19L560.9626871744791,19C562.6293538411459,19,565.9626871744791,19,571.1136696555398,24.666666666666668C576.2646521366004,30.333333333333332,583.2332837653883,41.666666666666664,586.7175995797821,47.333333333333336L590.2019153941761,53" style="stroke: rgb(0, 0, 0); stroke-width: 1px; fill: none; marker-end: url(&quot;#arrowhead-vee&quot;);"/><path id="edge-9" class="edge-path" d="M607.3934375996492,53L610.0620972510097,50.583333333333336C612.7307569023703,48.166666666666664,618.0680762050914,43.333333333333336,622.4034025231186,40.916666666666664C626.7387288411459,38.5,630.0720621744791,38.5,631.7387288411459,38.5L633.4053955078125,38.5" style="stroke: rgb(0, 0, 0); stroke-width: 1px; fill: none; marker-end: url(&quot;#arrowhead-vee&quot;);"/><path id="edge-9" class="edge-path" d="M604.1926464136096,73L607.3947712626434,77.08333333333333C610.5968961116772,81.16666666666667,617.0011458097448,89.33333333333333,627.1791465132709,93.41666666666667C637.3571472167969,97.5,651.3088989257812,97.5,658.2847747802734,97.5L665.2606506347656,97.5" style="stroke: rgb(0, 0, 0); stroke-width: 1px; fill: none; marker-end: url(&quot;#arrowhead-vee&quot;);"/><path id="edge-11" class="edge-path" d="M717.3346557617188,38.5L719.0013224283854,38.5C720.6679890950521,38.5,724.0013224283854,38.5,727.3346557617188,38.5C730.6679890950521,38.5,734.0013224283854,38.5,735.6679890950521,38.5L737.3346557617188,38.5" style="stroke: rgb(0, 0, 0); stroke-width: 1px; fill: none; marker-end: url(&quot;#arrowhead-vee&quot;);"/><path id="edge-13" class="edge-path" d="M819.05078125,38.5L820.7174479166666,38.5C822.3841145833334,38.5,825.7174479166666,38.5,829.05078125,38.5C832.3841145833334,38.5,835.7174479166666,38.5,837.3841145833334,38.5L839.05078125,38.5" style="stroke: rgb(0, 0, 0); stroke-width: 1px; fill: none; marker-end: url(&quot;#arrowhead-vee&quot;);"/><path id="edge-15" class="edge-path" d="M922.9800415039062,38.5L924.6467081705729,38.5C926.3133748372396,38.5,929.6467081705729,38.5,932.9800415039062,38.5C936.3133748372396,38.5,939.6467081705729,38.5,941.3133748372396,38.5L942.9800415039062,38.5" style="stroke: rgb(0, 0, 0); stroke-width: 1px; fill: none; marker-end: url(&quot;#arrowhead-vee&quot;);"/><path id="edge-16" class="edge-path" d="M975.4644165039062,38.5L977.1310831705729,38.5C978.7977498372396,38.5,982.1310831705729,38.5,985.4644165039062,38.5C988.7977498372396,38.5,992.1310831705729,38.5,993.7977498372396,38.5L995.4644165039062,38.5" style="stroke: rgb(0, 0, 0); stroke-width: 1px; fill: none; marker-end: url(&quot;#arrowhead-vee&quot;);"/><path id="edge-18" class="edge-path" d="M1070.4644165039062,38.5L1072.131083170573,38.5C1073.7977498372395,38.5,1077.131083170573,38.5,1080.4644165039062,38.5C1083.7977498372395,38.5,1087.131083170573,38.5,1088.7977498372395,38.5L1090.4644165039062,38.5" style="stroke: rgb(0, 0, 0); stroke-width: 1px; fill: none; marker-end: url(&quot;#arrowhead-vee&quot;);"/><path id="edge-20" class="edge-path" d="M1165.4644165039062,38.5L1167.131083170573,38.5C1168.7977498372395,38.5,1172.131083170573,38.5,1175.4644165039062,38.5C1178.7977498372395,38.5,1182.131083170573,38.5,1183.7977498372395,38.5L1185.4644165039062,38.5" style="stroke: rgb(0, 0, 0); stroke-width: 1px; fill: none; marker-end: url(&quot;#arrowhead-vee&quot;);"/><path id="edge-22" class="edge-path" d="M1260.4644165039062,38.5L1262.131083170573,38.5C1263.7977498372395,38.5,1267.131083170573,38.5,1272.1653164247923,43.416666666666664C1277.1995496790116,48.333333333333336,1283.9346828541172,58.166666666666664,1287.3022494416698,63.083333333333336L1290.6698160292226,68" style="stroke: rgb(0, 0, 0); stroke-width: 1px; fill: none; marker-end: url(&quot;#arrowhead-vee&quot;);"/><path id="edge-23" class="edge-path" d="M1308.5618335957429,68L1311.2304932471034,65.58333333333333C1313.899152898464,63.166666666666664,1319.236472201185,58.333333333333336,1323.5717985192123,55.916666666666664C1327.9071248372395,53.5,1331.240458170573,53.5,1332.9071248372395,53.5L1334.5737915039062,53.5" style="stroke: rgb(0, 0, 0); stroke-width: 1px; fill: none; marker-end: url(&quot;#arrowhead-vee&quot;);"/><path id="edge-23" class="edge-path" d="M1303.598809060086,88L1307.0946394673895,93.75C1310.5904698746929,99.5,1317.5821306892994,111,1327.5512327844283,116.75C1337.5203348795574,122.5,1350.4668782552083,122.5,1356.940149943034,122.5L1363.4134216308594,122.5" style="stroke: rgb(0, 0, 0); stroke-width: 1px; fill: none; marker-end: url(&quot;#arrowhead-vee&quot;);"/><path id="edge-25" class="edge-path" d="M1418.6749267578125,53.5L1420.3415934244792,53.5C1422.0082600911458,53.5,1425.3415934244792,53.5,1428.6749267578125,53.5C1432.0082600911458,53.5,1435.3415934244792,53.5,1437.0082600911458,53.5L1438.6749267578125,53.5" style="stroke: rgb(0, 0, 0); stroke-width: 1px; fill: none; marker-end: url(&quot;#arrowhead-vee&quot;);"/><path id="edge-27" class="edge-path" d="M1522.6041870117188,53.5L1524.2708536783855,53.5C1525.937520345052,53.5,1529.2708536783855,53.5,1532.6041870117188,53.5C1535.937520345052,53.5,1539.2708536783855,53.5,1540.937520345052,53.5L1542.6041870117188,53.5" style="stroke: rgb(0, 0, 0); stroke-width: 1px; fill: none; marker-end: url(&quot;#arrowhead-vee&quot;);"/><path id="edge-28" class="edge-path" d="M1575.0885620117188,53.5L1576.7552286783855,53.5C1578.421895345052,53.5,1581.7552286783855,53.5,1585.0885620117188,53.5C1588.421895345052,53.5,1591.7552286783855,53.5,1593.421895345052,53.5L1595.0885620117188,53.5" style="stroke: rgb(0, 0, 0); stroke-width: 1px; fill: none; marker-end: url(&quot;#arrowhead-vee&quot;);"/><path id="edge-30" class="edge-path" d="M1679.189697265625,53.5L1680.8563639322917,53.5C1682.5230305989583,53.5,1685.8563639322917,53.5,1689.189697265625,53.5C1692.5230305989583,53.5,1695.8563639322917,53.5,1697.5230305989583,53.5L1699.189697265625,53.5" style="stroke: rgb(0, 0, 0); stroke-width: 1px; fill: none; marker-end: url(&quot;#arrowhead-vee&quot;);"/><path id="edge-32" class="edge-path" d="M1783.1189575195312,53.5L1784.785624186198,53.5C1786.4522908528645,53.5,1789.785624186198,53.5,1794.819857440417,58.416666666666664C1799.8540906946366,63.333333333333336,1806.5892238697422,73.16666666666667,1809.9567904572948,78.08333333333333L1813.3243570448476,83" style="stroke: rgb(0, 0, 0); stroke-width: 1px; fill: none; marker-end: url(&quot;#arrowhead-vee&quot;);"/><path id="edge-33" class="edge-path" d="M1833.7009887695312,83L1835.955546061198,81.33333333333333C1838.2101033528645,79.66666666666667,1842.719217936198,76.33333333333333,1846.6404418945312,74.66666666666667C1850.5616658528645,73,1853.894999186198,73,1855.5616658528645,73L1857.2283325195312,73" style="stroke: rgb(0, 0, 0); stroke-width: 1px; fill: none; marker-end: url(&quot;#arrowhead-vee&quot;);"/><path id="edge-33" class="edge-path" d="M1825.137807863568,103L1828.8195619728951,110.41666666666667C1832.5013160822225,117.83333333333333,1839.8648243008768,132.66666666666666,1845.4241825768706,140.08333333333334C1850.9835408528645,147.5,1854.738749186198,147.5,1856.6163533528645,147.5L1858.4939575195312,147.5" style="stroke: rgb(0, 0, 0); stroke-width: 1px; fill: none; marker-end: url(&quot;#arrowhead-vee&quot;);"/><path id="edge-34" class="edge-path" d="M1886.1814575195312,73L1887.848124186198,73C1889.5147908528645,73,1892.848124186198,73,1896.1814575195312,73C1899.5147908528645,73,1902.848124186198,73,1904.5147908528645,73L1906.1814575195312,73" style="stroke: rgb(0, 0, 0); stroke-width: 1px; fill: none; marker-end: url(&quot;#arrowhead-vee&quot;);"/><path id="edge-36" class="edge-path" d="M1981.1814575195312,73L1982.848124186198,73C1984.5147908528645,73,1987.848124186198,73,1992.7355869838168,77.16666666666667C1997.6230497814358,81.33333333333333,2004.0646420433407,89.66666666666667,2007.285438174293,93.83333333333333L2010.5062343052455,98" style="stroke: rgb(0, 0, 0); stroke-width: 1px; fill: none; marker-end: url(&quot;#arrowhead-vee&quot;);"/><path id="edge-37" class="edge-path" d="M2035.2908325195312,108L2036.957499186198,108C2038.6241658528645,108,2041.957499186198,108,2045.2908325195312,108C2048.6241658528647,108,2051.9574991861978,108,2053.6241658528647,108L2055.2908325195312,108" style="stroke: rgb(0, 0, 0); stroke-width: 1px; fill: none; marker-end: url(&quot;#arrowhead-vee&quot;);"/></g><g id="edge-labels" class="edge-labels"/><g id="nodes" class="nodes"><g id="input-name-input.1" class="node graph-input" transform="translate(0,117.5)" style="opacity: 1;"><g class="node-item graph-item-input" transform="translate(0,0)"><path d="M5,0h39.34375a5,5 0 0 1 5,5v10a5,5 0 0 1 -5,5h-39.34375a5,5 0 0 1 -5,-5v-10a5,5 0 0 1 5,-5z" style="stroke: rgb(0, 0, 0); fill: rgb(238, 238, 238); stroke-width: 0;"/><text x="6" y="13" style="font-family: -apple-system, BlinkMacSystemFont, &quot;Segoe WPC&quot;, &quot;Segoe UI&quot;, Ubuntu, &quot;Droid Sans&quot;, sans-serif, &quot;PingFang SC&quot;; font-size: 11px; text-rendering: geometricprecision;">input.1</text><title>float32</title></g><path class="node border" d="M5,0h39.34375a5,5 0 0 1 5,5v10a5,5 0 0 1 -5,5h-39.34375a5,5 0 0 1 -5,-5v-10a5,5 0 0 1 5,-5z" style="stroke: rgb(51, 51, 51); fill: none; stroke-width: 1px;"/></g><g id="node-name-Shape_0" class="node graph-node" transform="translate(89.34375,117.5)" style="opacity: 1;"><g class="node-item node-item-type" transform="translate(0,0)"><path d="M5,0h34.515625a5,5 0 0 1 5,5v10a5,5 0 0 1 -5,5h-34.515625a5,5 0 0 1 -5,-5v-10a5,5 0 0 1 5,-5z" style="stroke: rgb(0, 0, 0); fill: rgb(0, 0, 0); stroke-width: 0;"/><text x="6" y="13" style="font-family: -apple-system, BlinkMacSystemFont, &quot;Segoe WPC&quot;, &quot;Segoe UI&quot;, Ubuntu, &quot;Droid Sans&quot;, sans-serif, &quot;PingFang SC&quot;; font-size: 11px; text-rendering: geometricprecision; fill: rgb(255, 255, 255);">Shape</text><title>Shape_0</title></g><path class="node border" d="M5,0h34.515625a5,5 0 0 1 5,5v10a5,5 0 0 1 -5,5h-34.515625a5,5 0 0 1 -5,-5v-10a5,5 0 0 1 5,-5z" style="stroke: rgb(51, 51, 51); fill: none; stroke-width: 1px;"/></g><g id="node-name-ConstantOfShape_1" class="node graph-node" transform="translate(153.859375,117.5)" style="opacity: 1;"><g class="node-item node-item-type" transform="translate(0,0)"><path d="M5,0h92.578125a5,5 0 0 1 5,5v10a5,5 0 0 1 -5,5h-92.578125a5,5 0 0 1 -5,-5v-10a5,5 0 0 1 5,-5z" style="stroke: rgb(0, 0, 0); fill: rgb(0, 0, 0); stroke-width: 0;"/><text x="6" y="13" style="font-family: -apple-system, BlinkMacSystemFont, &quot;Segoe WPC&quot;, &quot;Segoe UI&quot;, Ubuntu, &quot;Droid Sans&quot;, sans-serif, &quot;PingFang SC&quot;; font-size: 11px; text-rendering: geometricprecision; fill: rgb(255, 255, 255);">ConstantOfShape</text><title>ConstantOfShape_1</title></g><path class="node border" d="M5,0h92.578125a5,5 0 0 1 5,5v10a5,5 0 0 1 -5,5h-92.578125a5,5 0 0 1 -5,-5v-10a5,5 0 0 1 5,-5z" style="stroke: rgb(51, 51, 51); fill: none; stroke-width: 1px;"/></g><g id="node-name-Add_3" class="node graph-node" transform="translate(276.4375,24.5)" style="opacity: 1;"><g class="node-item node-item-type" transform="translate(0,0)"><path d="M5,0h65a5,5 0 0 1 5,5v15a0,0 0 0 1 0,0h-75a0,0 0 0 1 0,0v-15a5,5 0 0 1 5,-5z" style="stroke: rgb(0, 0, 0); fill: rgb(0, 0, 0); stroke-width: 0;"/><text x="6" y="13" style="font-family: -apple-system, BlinkMacSystemFont, &quot;Segoe WPC&quot;, &quot;Segoe UI&quot;, Ubuntu, &quot;Droid Sans&quot;, sans-serif, &quot;PingFang SC&quot;; font-size: 11px; text-rendering: geometricprecision; fill: rgb(255, 255, 255);">Add</text><title>Add_3</title></g><g class="node-attribute" transform="translate(0,20)"><path d="M0,0h75a0,0 0 0 1 0,0v13a5,5 0 0 1 -5,5h-65a5,5 0 0 1 -5,-5v-13a0,0 0 0 1 0,0z" style="stroke: rgb(0, 0, 0); fill: rgb(255, 255, 255); stroke-width: 0;"/><text id="initializer-3" xml:space="preserve" x="6" y="12" style="font-family: -apple-system, BlinkMacSystemFont, &quot;Segoe WPC&quot;, &quot;Segoe UI&quot;, Ubuntu, &quot;Droid Sans&quot;, sans-serif, &quot;PingFang SC&quot;; font-size: 9px; font-weight: normal; text-rendering: geometricprecision;"><title>float32</title><tspan>B</tspan><tspan> = 0</tspan></text><line class="node" x1="0" x2="75" y1="0" y2="0" style="stroke: rgb(51, 51, 51); fill: none; stroke-width: 1px;"/></g><path class="node border" d="M5,0h65a5,5 0 0 1 5,5v28a5,5 0 0 1 -5,5h-65a5,5 0 0 1 -5,-5v-28a5,5 0 0 1 5,-5z" style="stroke: rgb(51, 51, 51); fill: none; stroke-width: 1px;"/></g><g id="node-name-Mul_5" class="node graph-node" transform="translate(371.4375,0)" style="opacity: 1;"><g class="node-item node-item-type" transform="translate(0,0)"><path d="M5,0h73.92926025390625a5,5 0 0 1 5,5v15a0,0 0 0 1 0,0h-83.92926025390625a0,0 0 0 1 0,0v-15a5,5 0 0 1 5,-5z" style="stroke: rgb(0, 0, 0); fill: rgb(0, 0, 0); stroke-width: 0;"/><text x="6" y="13" style="font-family: -apple-system, BlinkMacSystemFont, &quot;Segoe WPC&quot;, &quot;Segoe UI&quot;, Ubuntu, &quot;Droid Sans&quot;, sans-serif, &quot;PingFang SC&quot;; font-size: 11px; text-rendering: geometricprecision; fill: rgb(255, 255, 255);">Mul</text><title>Mul_5</title></g><g class="node-attribute" transform="translate(0,20)"><path d="M0,0h83.92926025390625a0,0 0 0 1 0,0v13a5,5 0 0 1 -5,5h-73.92926025390625a5,5 0 0 1 -5,-5v-13a0,0 0 0 1 0,0z" style="stroke: rgb(0, 0, 0); fill: rgb(255, 255, 255); stroke-width: 0;"/><text id="initializer-5" xml:space="preserve" x="6" y="12" style="font-family: -apple-system, BlinkMacSystemFont, &quot;Segoe WPC&quot;, &quot;Segoe UI&quot;, Ubuntu, &quot;Droid Sans&quot;, sans-serif, &quot;PingFang SC&quot;; font-size: 9px; font-weight: normal; text-rendering: geometricprecision;"><title>float32</title><tspan>B</tspan><tspan> = 1.10000002…</tspan></text><line class="node" x1="0" x2="83.92926025390625" y1="0" y2="0" style="stroke: rgb(51, 51, 51); fill: none; stroke-width: 1px;"/></g><path class="node border" d="M5,0h73.92926025390625a5,5 0 0 1 5,5v28a5,5 0 0 1 -5,5h-73.92926025390625a5,5 0 0 1 -5,-5v-28a5,5 0 0 1 5,-5z" style="stroke: rgb(51, 51, 51); fill: none; stroke-width: 1px;"/></g><g id="node-name-Add_7" class="node graph-node" transform="translate(475.36676025390625,0)" style="opacity: 1;"><g class="node-item node-item-type" transform="translate(0,0)"><path d="M5,0h73.92926025390625a5,5 0 0 1 5,5v15a0,0 0 0 1 0,0h-83.92926025390625a0,0 0 0 1 0,0v-15a5,5 0 0 1 5,-5z" style="stroke: rgb(0, 0, 0); fill: rgb(0, 0, 0); stroke-width: 0;"/><text x="6" y="13" style="font-family: -apple-system, BlinkMacSystemFont, &quot;Segoe WPC&quot;, &quot;Segoe UI&quot;, Ubuntu, &quot;Droid Sans&quot;, sans-serif, &quot;PingFang SC&quot;; font-size: 11px; text-rendering: geometricprecision; fill: rgb(255, 255, 255);">Add</text><title>Add_7</title></g><g class="node-attribute" transform="translate(0,20)"><path d="M0,0h83.92926025390625a0,0 0 0 1 0,0v13a5,5 0 0 1 -5,5h-73.92926025390625a5,5 0 0 1 -5,-5v-13a0,0 0 0 1 0,0z" style="stroke: rgb(0, 0, 0); fill: rgb(255, 255, 255); stroke-width: 0;"/><text id="initializer-7" xml:space="preserve" x="6" y="12" style="font-family: -apple-system, BlinkMacSystemFont, &quot;Segoe WPC&quot;, &quot;Segoe UI&quot;, Ubuntu, &quot;Droid Sans&quot;, sans-serif, &quot;PingFang SC&quot;; font-size: 9px; font-weight: normal; text-rendering: geometricprecision;"><title>float32</title><tspan>B</tspan><tspan> = 1.20000004…</tspan></text><line class="node" x1="0" x2="83.92926025390625" y1="0" y2="0" style="stroke: rgb(51, 51, 51); fill: none; stroke-width: 1px;"/></g><path class="node border" d="M5,0h73.92926025390625a5,5 0 0 1 5,5v28a5,5 0 0 1 -5,5h-73.92926025390625a5,5 0 0 1 -5,-5v-28a5,5 0 0 1 5,-5z" style="stroke: rgb(51, 51, 51); fill: none; stroke-width: 1px;"/></g><g id="node-name-Add_8" class="node graph-node" transform="translate(579.2960205078125,53)" style="opacity: 1;"><g class="node-item node-item-type" transform="translate(0,0)"><path d="M5,0h24.109375a5,5 0 0 1 5,5v10a5,5 0 0 1 -5,5h-24.109375a5,5 0 0 1 -5,-5v-10a5,5 0 0 1 5,-5z" style="stroke: rgb(0, 0, 0); fill: rgb(0, 0, 0); stroke-width: 0;"/><text x="6" y="13" style="font-family: -apple-system, BlinkMacSystemFont, &quot;Segoe WPC&quot;, &quot;Segoe UI&quot;, Ubuntu, &quot;Droid Sans&quot;, sans-serif, &quot;PingFang SC&quot;; font-size: 11px; text-rendering: geometricprecision; fill: rgb(255, 255, 255);">Add</text><title>Add_8</title></g><path class="node border" d="M5,0h24.109375a5,5 0 0 1 5,5v10a5,5 0 0 1 -5,5h-24.109375a5,5 0 0 1 -5,-5v-10a5,5 0 0 1 5,-5z" style="stroke: rgb(51, 51, 51); fill: none; stroke-width: 1px;"/></g><g id="node-name-Add_10" class="node graph-node" transform="translate(633.4053955078125,19.5)" style="opacity: 1;"><g class="node-item node-item-type" transform="translate(0,0)"><path d="M5,0h73.92926025390625a5,5 0 0 1 5,5v15a0,0 0 0 1 0,0h-83.92926025390625a0,0 0 0 1 0,0v-15a5,5 0 0 1 5,-5z" style="stroke: rgb(0, 0, 0); fill: rgb(0, 0, 0); stroke-width: 0;"/><text x="6" y="13" style="font-family: -apple-system, BlinkMacSystemFont, &quot;Segoe WPC&quot;, &quot;Segoe UI&quot;, Ubuntu, &quot;Droid Sans&quot;, sans-serif, &quot;PingFang SC&quot;; font-size: 11px; text-rendering: geometricprecision; fill: rgb(255, 255, 255);">Add</text><title>Add_10</title></g><g class="node-attribute" transform="translate(0,20)"><path d="M0,0h83.92926025390625a0,0 0 0 1 0,0v13a5,5 0 0 1 -5,5h-73.92926025390625a5,5 0 0 1 -5,-5v-13a0,0 0 0 1 0,0z" style="stroke: rgb(0, 0, 0); fill: rgb(255, 255, 255); stroke-width: 0;"/><text id="initializer-10" xml:space="preserve" x="6" y="12" style="font-family: -apple-system, BlinkMacSystemFont, &quot;Segoe WPC&quot;, &quot;Segoe UI&quot;, Ubuntu, &quot;Droid Sans&quot;, sans-serif, &quot;PingFang SC&quot;; font-size: 9px; font-weight: normal; text-rendering: geometricprecision;"><title>float32</title><tspan>B</tspan><tspan> = 2.20000004…</tspan></text><line class="node" x1="0" x2="83.92926025390625" y1="0" y2="0" style="stroke: rgb(51, 51, 51); fill: none; stroke-width: 1px;"/></g><path class="node border" d="M5,0h73.92926025390625a5,5 0 0 1 5,5v28a5,5 0 0 1 -5,5h-73.92926025390625a5,5 0 0 1 -5,-5v-28a5,5 0 0 1 5,-5z" style="stroke: rgb(51, 51, 51); fill: none; stroke-width: 1px;"/></g><g id="node-name-Mul_12" class="node graph-node" transform="translate(737.3346557617188,19.5)" style="opacity: 1;"><g class="node-item node-item-type" transform="translate(0,0)"><path d="M5,0h71.71612548828125a5,5 0 0 1 5,5v15a0,0 0 0 1 0,0h-81.71612548828125a0,0 0 0 1 0,0v-15a5,5 0 0 1 5,-5z" style="stroke: rgb(0, 0, 0); fill: rgb(0, 0, 0); stroke-width: 0;"/><text x="6" y="13" style="font-family: -apple-system, BlinkMacSystemFont, &quot;Segoe WPC&quot;, &quot;Segoe UI&quot;, Ubuntu, &quot;Droid Sans&quot;, sans-serif, &quot;PingFang SC&quot;; font-size: 11px; text-rendering: geometricprecision; fill: rgb(255, 255, 255);">Mul</text><title>Mul_12</title></g><g class="node-attribute" transform="translate(0,20)"><path d="M0,0h81.71612548828125a0,0 0 0 1 0,0v13a5,5 0 0 1 -5,5h-71.71612548828125a5,5 0 0 1 -5,-5v-13a0,0 0 0 1 0,0z" style="stroke: rgb(0, 0, 0); fill: rgb(255, 255, 255); stroke-width: 0;"/><text id="initializer-12" xml:space="preserve" x="6" y="12" style="font-family: -apple-system, BlinkMacSystemFont, &quot;Segoe WPC&quot;, &quot;Segoe UI&quot;, Ubuntu, &quot;Droid Sans&quot;, sans-serif, &quot;PingFang SC&quot;; font-size: 9px; font-weight: normal; text-rendering: geometricprecision;"><title>float32</title><tspan>A</tspan><tspan> = -2.0999999…</tspan></text><line class="node" x1="0" x2="81.71612548828125" y1="0" y2="0" style="stroke: rgb(51, 51, 51); fill: none; stroke-width: 1px;"/></g><path class="node border" d="M5,0h71.71612548828125a5,5 0 0 1 5,5v28a5,5 0 0 1 -5,5h-71.71612548828125a5,5 0 0 1 -5,-5v-28a5,5 0 0 1 5,-5z" style="stroke: rgb(51, 51, 51); fill: none; stroke-width: 1px;"/></g><g id="node-name-Add_14" class="node graph-node" transform="translate(839.05078125,19.5)" style="opacity: 1;"><g class="node-item node-item-type" transform="translate(0,0)"><path d="M5,0h73.92926025390625a5,5 0 0 1 5,5v15a0,0 0 0 1 0,0h-83.92926025390625a0,0 0 0 1 0,0v-15a5,5 0 0 1 5,-5z" style="stroke: rgb(0, 0, 0); fill: rgb(0, 0, 0); stroke-width: 0;"/><text x="6" y="13" style="font-family: -apple-system, BlinkMacSystemFont, &quot;Segoe WPC&quot;, &quot;Segoe UI&quot;, Ubuntu, &quot;Droid Sans&quot;, sans-serif, &quot;PingFang SC&quot;; font-size: 11px; text-rendering: geometricprecision; fill: rgb(255, 255, 255);">Add</text><title>Add_14</title></g><g class="node-attribute" transform="translate(0,20)"><path d="M0,0h83.92926025390625a0,0 0 0 1 0,0v13a5,5 0 0 1 -5,5h-73.92926025390625a5,5 0 0 1 -5,-5v-13a0,0 0 0 1 0,0z" style="stroke: rgb(0, 0, 0); fill: rgb(255, 255, 255); stroke-width: 0;"/><text id="initializer-14" xml:space="preserve" x="6" y="12" style="font-family: -apple-system, BlinkMacSystemFont, &quot;Segoe WPC&quot;, &quot;Segoe UI&quot;, Ubuntu, &quot;Droid Sans&quot;, sans-serif, &quot;PingFang SC&quot;; font-size: 9px; font-weight: normal; text-rendering: geometricprecision;"><title>float32</title><tspan>B</tspan><tspan> = 2.29999995…</tspan></text><line class="node" x1="0" x2="83.92926025390625" y1="0" y2="0" style="stroke: rgb(51, 51, 51); fill: none; stroke-width: 1px;"/></g><path class="node border" d="M5,0h73.92926025390625a5,5 0 0 1 5,5v28a5,5 0 0 1 -5,5h-73.92926025390625a5,5 0 0 1 -5,-5v-28a5,5 0 0 1 5,-5z" style="stroke: rgb(51, 51, 51); fill: none; stroke-width: 1px;"/></g><g id="node-name-Exp_15" class="node graph-node" transform="translate(942.9800415039062,28.5)" style="opacity: 1;"><g class="node-item node-item-type" transform="translate(0,0)"><path d="M5,0h22.484375a5,5 0 0 1 5,5v10a5,5 0 0 1 -5,5h-22.484375a5,5 0 0 1 -5,-5v-10a5,5 0 0 1 5,-5z" style="stroke: rgb(0, 0, 0); fill: rgb(0, 0, 0); stroke-width: 0;"/><text x="6" y="13" style="font-family: -apple-system, BlinkMacSystemFont, &quot;Segoe WPC&quot;, &quot;Segoe UI&quot;, Ubuntu, &quot;Droid Sans&quot;, sans-serif, &quot;PingFang SC&quot;; font-size: 11px; text-rendering: geometricprecision; fill: rgb(255, 255, 255);">Exp</text><title>Exp_15</title></g><path class="node border" d="M5,0h22.484375a5,5 0 0 1 5,5v10a5,5 0 0 1 -5,5h-22.484375a5,5 0 0 1 -5,-5v-10a5,5 0 0 1 5,-5z" style="stroke: rgb(51, 51, 51); fill: none; stroke-width: 1px;"/></g><g id="node-name-Add_17" class="node graph-node" transform="translate(995.4644165039062,19.5)" style="opacity: 1;"><g class="node-item node-item-type" transform="translate(0,0)"><path d="M5,0h65a5,5 0 0 1 5,5v15a0,0 0 0 1 0,0h-75a0,0 0 0 1 0,0v-15a5,5 0 0 1 5,-5z" style="stroke: rgb(0, 0, 0); fill: rgb(0, 0, 0); stroke-width: 0;"/><text x="6" y="13" style="font-family: -apple-system, BlinkMacSystemFont, &quot;Segoe WPC&quot;, &quot;Segoe UI&quot;, Ubuntu, &quot;Droid Sans&quot;, sans-serif, &quot;PingFang SC&quot;; font-size: 11px; text-rendering: geometricprecision; fill: rgb(255, 255, 255);">Add</text><title>Add_17</title></g><g class="node-attribute" transform="translate(0,20)"><path d="M0,0h75a0,0 0 0 1 0,0v13a5,5 0 0 1 -5,5h-65a5,5 0 0 1 -5,-5v-13a0,0 0 0 1 0,0z" style="stroke: rgb(0, 0, 0); fill: rgb(255, 255, 255); stroke-width: 0;"/><text id="initializer-17" xml:space="preserve" x="6" y="12" style="font-family: -apple-system, BlinkMacSystemFont, &quot;Segoe WPC&quot;, &quot;Segoe UI&quot;, Ubuntu, &quot;Droid Sans&quot;, sans-serif, &quot;PingFang SC&quot;; font-size: 9px; font-weight: normal; text-rendering: geometricprecision;"><title>float32</title><tspan>B</tspan><tspan> = 1</tspan></text><line class="node" x1="0" x2="75" y1="0" y2="0" style="stroke: rgb(51, 51, 51); fill: none; stroke-width: 1px;"/></g><path class="node border" d="M5,0h65a5,5 0 0 1 5,5v28a5,5 0 0 1 -5,5h-65a5,5 0 0 1 -5,-5v-28a5,5 0 0 1 5,-5z" style="stroke: rgb(51, 51, 51); fill: none; stroke-width: 1px;"/></g><g id="node-name-Div_19" class="node graph-node" transform="translate(1090.4644165039062,19.5)" style="opacity: 1;"><g class="node-item node-item-type" transform="translate(0,0)"><path d="M5,0h65a5,5 0 0 1 5,5v15a0,0 0 0 1 0,0h-75a0,0 0 0 1 0,0v-15a5,5 0 0 1 5,-5z" style="stroke: rgb(0, 0, 0); fill: rgb(0, 0, 0); stroke-width: 0;"/><text x="6" y="13" style="font-family: -apple-system, BlinkMacSystemFont, &quot;Segoe WPC&quot;, &quot;Segoe UI&quot;, Ubuntu, &quot;Droid Sans&quot;, sans-serif, &quot;PingFang SC&quot;; font-size: 11px; text-rendering: geometricprecision; fill: rgb(255, 255, 255);">Div</text><title>Div_19</title></g><g class="node-attribute" transform="translate(0,20)"><path d="M0,0h75a0,0 0 0 1 0,0v13a5,5 0 0 1 -5,5h-65a5,5 0 0 1 -5,-5v-13a0,0 0 0 1 0,0z" style="stroke: rgb(0, 0, 0); fill: rgb(255, 255, 255); stroke-width: 0;"/><text id="initializer-19" xml:space="preserve" x="6" y="12" style="font-family: -apple-system, BlinkMacSystemFont, &quot;Segoe WPC&quot;, &quot;Segoe UI&quot;, Ubuntu, &quot;Droid Sans&quot;, sans-serif, &quot;PingFang SC&quot;; font-size: 9px; font-weight: normal; text-rendering: geometricprecision;"><title>float32</title><tspan>A</tspan><tspan> = 1</tspan></text><line class="node" x1="0" x2="75" y1="0" y2="0" style="stroke: rgb(51, 51, 51); fill: none; stroke-width: 1px;"/></g><path class="node border" d="M5,0h65a5,5 0 0 1 5,5v28a5,5 0 0 1 -5,5h-65a5,5 0 0 1 -5,-5v-28a5,5 0 0 1 5,-5z" style="stroke: rgb(51, 51, 51); fill: none; stroke-width: 1px;"/></g><g id="node-name-Mul_21" class="node graph-node" transform="translate(1185.4644165039062,19.5)" style="opacity: 1;"><g class="node-item node-item-type" transform="translate(0,0)"><path d="M5,0h65a5,5 0 0 1 5,5v15a0,0 0 0 1 0,0h-75a0,0 0 0 1 0,0v-15a5,5 0 0 1 5,-5z" style="stroke: rgb(0, 0, 0); fill: rgb(0, 0, 0); stroke-width: 0;"/><text x="6" y="13" style="font-family: -apple-system, BlinkMacSystemFont, &quot;Segoe WPC&quot;, &quot;Segoe UI&quot;, Ubuntu, &quot;Droid Sans&quot;, sans-serif, &quot;PingFang SC&quot;; font-size: 11px; text-rendering: geometricprecision; fill: rgb(255, 255, 255);">Mul</text><title>Mul_21</title></g><g class="node-attribute" transform="translate(0,20)"><path d="M0,0h75a0,0 0 0 1 0,0v13a5,5 0 0 1 -5,5h-65a5,5 0 0 1 -5,-5v-13a0,0 0 0 1 0,0z" style="stroke: rgb(0, 0, 0); fill: rgb(255, 255, 255); stroke-width: 0;"/><text id="initializer-21" xml:space="preserve" x="6" y="12" style="font-family: -apple-system, BlinkMacSystemFont, &quot;Segoe WPC&quot;, &quot;Segoe UI&quot;, Ubuntu, &quot;Droid Sans&quot;, sans-serif, &quot;PingFang SC&quot;; font-size: 9px; font-weight: normal; text-rendering: geometricprecision;"><title>float32</title><tspan>B</tspan><tspan> = 1</tspan></text><line class="node" x1="0" x2="75" y1="0" y2="0" style="stroke: rgb(51, 51, 51); fill: none; stroke-width: 1px;"/></g><path class="node border" d="M5,0h65a5,5 0 0 1 5,5v28a5,5 0 0 1 -5,5h-65a5,5 0 0 1 -5,-5v-28a5,5 0 0 1 5,-5z" style="stroke: rgb(51, 51, 51); fill: none; stroke-width: 1px;"/></g><g id="node-name-Add_22" class="node graph-node" transform="translate(1280.4644165039062,68)" style="opacity: 1;"><g class="node-item node-item-type" transform="translate(0,0)"><path d="M5,0h24.109375a5,5 0 0 1 5,5v10a5,5 0 0 1 -5,5h-24.109375a5,5 0 0 1 -5,-5v-10a5,5 0 0 1 5,-5z" style="stroke: rgb(0, 0, 0); fill: rgb(0, 0, 0); stroke-width: 0;"/><text x="6" y="13" style="font-family: -apple-system, BlinkMacSystemFont, &quot;Segoe WPC&quot;, &quot;Segoe UI&quot;, Ubuntu, &quot;Droid Sans&quot;, sans-serif, &quot;PingFang SC&quot;; font-size: 11px; text-rendering: geometricprecision; fill: rgb(255, 255, 255);">Add</text><title>Add_22</title></g><path class="node border" d="M5,0h24.109375a5,5 0 0 1 5,5v10a5,5 0 0 1 -5,5h-24.109375a5,5 0 0 1 -5,-5v-10a5,5 0 0 1 5,-5z" style="stroke: rgb(51, 51, 51); fill: none; stroke-width: 1px;"/></g><g id="node-name-Mul_24" class="node graph-node" transform="translate(1334.5737915039062,34.5)" style="opacity: 1;"><g class="node-item node-item-type" transform="translate(0,0)"><path d="M5,0h74.10113525390625a5,5 0 0 1 5,5v15a0,0 0 0 1 0,0h-84.10113525390625a0,0 0 0 1 0,0v-15a5,5 0 0 1 5,-5z" style="stroke: rgb(0, 0, 0); fill: rgb(0, 0, 0); stroke-width: 0;"/><text x="6" y="13" style="font-family: -apple-system, BlinkMacSystemFont, &quot;Segoe WPC&quot;, &quot;Segoe UI&quot;, Ubuntu, &quot;Droid Sans&quot;, sans-serif, &quot;PingFang SC&quot;; font-size: 11px; text-rendering: geometricprecision; fill: rgb(255, 255, 255);">Mul</text><title>Mul_24</title></g><g class="node-attribute" transform="translate(0,20)"><path d="M0,0h84.10113525390625a0,0 0 0 1 0,0v13a5,5 0 0 1 -5,5h-74.10113525390625a5,5 0 0 1 -5,-5v-13a0,0 0 0 1 0,0z" style="stroke: rgb(0, 0, 0); fill: rgb(255, 255, 255); stroke-width: 0;"/><text id="initializer-24" xml:space="preserve" x="6" y="12" style="font-family: -apple-system, BlinkMacSystemFont, &quot;Segoe WPC&quot;, &quot;Segoe UI&quot;, Ubuntu, &quot;Droid Sans&quot;, sans-serif, &quot;PingFang SC&quot;; font-size: 9px; font-weight: normal; text-rendering: geometricprecision;"><title>float32</title><tspan>A</tspan><tspan> = 3.20000004…</tspan></text><line class="node" x1="0" x2="84.10113525390625" y1="0" y2="0" style="stroke: rgb(51, 51, 51); fill: none; stroke-width: 1px;"/></g><path class="node border" d="M5,0h74.10113525390625a5,5 0 0 1 5,5v28a5,5 0 0 1 -5,5h-74.10113525390625a5,5 0 0 1 -5,-5v-28a5,5 0 0 1 5,-5z" style="stroke: rgb(51, 51, 51); fill: none; stroke-width: 1px;"/></g><g id="node-name-Add_26" class="node graph-node" transform="translate(1438.6749267578125,34.5)" style="opacity: 1;"><g class="node-item node-item-type" transform="translate(0,0)"><path d="M5,0h73.92926025390625a5,5 0 0 1 5,5v15a0,0 0 0 1 0,0h-83.92926025390625a0,0 0 0 1 0,0v-15a5,5 0 0 1 5,-5z" style="stroke: rgb(0, 0, 0); fill: rgb(0, 0, 0); stroke-width: 0;"/><text x="6" y="13" style="font-family: -apple-system, BlinkMacSystemFont, &quot;Segoe WPC&quot;, &quot;Segoe UI&quot;, Ubuntu, &quot;Droid Sans&quot;, sans-serif, &quot;PingFang SC&quot;; font-size: 11px; text-rendering: geometricprecision; fill: rgb(255, 255, 255);">Add</text><title>Add_26</title></g><g class="node-attribute" transform="translate(0,20)"><path d="M0,0h83.92926025390625a0,0 0 0 1 0,0v13a5,5 0 0 1 -5,5h-73.92926025390625a5,5 0 0 1 -5,-5v-13a0,0 0 0 1 0,0z" style="stroke: rgb(0, 0, 0); fill: rgb(255, 255, 255); stroke-width: 0;"/><text id="initializer-26" xml:space="preserve" x="6" y="12" style="font-family: -apple-system, BlinkMacSystemFont, &quot;Segoe WPC&quot;, &quot;Segoe UI&quot;, Ubuntu, &quot;Droid Sans&quot;, sans-serif, &quot;PingFang SC&quot;; font-size: 9px; font-weight: normal; text-rendering: geometricprecision;"><title>float32</title><tspan>B</tspan><tspan> = 3.29999995…</tspan></text><line class="node" x1="0" x2="83.92926025390625" y1="0" y2="0" style="stroke: rgb(51, 51, 51); fill: none; stroke-width: 1px;"/></g><path class="node border" d="M5,0h73.92926025390625a5,5 0 0 1 5,5v28a5,5 0 0 1 -5,5h-73.92926025390625a5,5 0 0 1 -5,-5v-28a5,5 0 0 1 5,-5z" style="stroke: rgb(51, 51, 51); fill: none; stroke-width: 1px;"/></g><g id="node-name-Exp_27" class="node graph-node" transform="translate(1542.6041870117188,43.5)" style="opacity: 1;"><g class="node-item node-item-type" transform="translate(0,0)"><path d="M5,0h22.484375a5,5 0 0 1 5,5v10a5,5 0 0 1 -5,5h-22.484375a5,5 0 0 1 -5,-5v-10a5,5 0 0 1 5,-5z" style="stroke: rgb(0, 0, 0); fill: rgb(0, 0, 0); stroke-width: 0;"/><text x="6" y="13" style="font-family: -apple-system, BlinkMacSystemFont, &quot;Segoe WPC&quot;, &quot;Segoe UI&quot;, Ubuntu, &quot;Droid Sans&quot;, sans-serif, &quot;PingFang SC&quot;; font-size: 11px; text-rendering: geometricprecision; fill: rgb(255, 255, 255);">Exp</text><title>Exp_27</title></g><path class="node border" d="M5,0h22.484375a5,5 0 0 1 5,5v10a5,5 0 0 1 -5,5h-22.484375a5,5 0 0 1 -5,-5v-10a5,5 0 0 1 5,-5z" style="stroke: rgb(51, 51, 51); fill: none; stroke-width: 1px;"/></g><g id="node-name-Mul_29" class="node graph-node" transform="translate(1595.0885620117188,34.5)" style="opacity: 1;"><g class="node-item node-item-type" transform="translate(0,0)"><path d="M5,0h74.10113525390625a5,5 0 0 1 5,5v15a0,0 0 0 1 0,0h-84.10113525390625a0,0 0 0 1 0,0v-15a5,5 0 0 1 5,-5z" style="stroke: rgb(0, 0, 0); fill: rgb(0, 0, 0); stroke-width: 0;"/><text x="6" y="13" style="font-family: -apple-system, BlinkMacSystemFont, &quot;Segoe WPC&quot;, &quot;Segoe UI&quot;, Ubuntu, &quot;Droid Sans&quot;, sans-serif, &quot;PingFang SC&quot;; font-size: 11px; text-rendering: geometricprecision; fill: rgb(255, 255, 255);">Mul</text><title>Mul_29</title></g><g class="node-attribute" transform="translate(0,20)"><path d="M0,0h84.10113525390625a0,0 0 0 1 0,0v13a5,5 0 0 1 -5,5h-74.10113525390625a5,5 0 0 1 -5,-5v-13a0,0 0 0 1 0,0z" style="stroke: rgb(0, 0, 0); fill: rgb(255, 255, 255); stroke-width: 0;"/><text id="initializer-29" xml:space="preserve" x="6" y="12" style="font-family: -apple-system, BlinkMacSystemFont, &quot;Segoe WPC&quot;, &quot;Segoe UI&quot;, Ubuntu, &quot;Droid Sans&quot;, sans-serif, &quot;PingFang SC&quot;; font-size: 9px; font-weight: normal; text-rendering: geometricprecision;"><title>float32</title><tspan>A</tspan><tspan> = 3.09999990…</tspan></text><line class="node" x1="0" x2="84.10113525390625" y1="0" y2="0" style="stroke: rgb(51, 51, 51); fill: none; stroke-width: 1px;"/></g><path class="node border" d="M5,0h74.10113525390625a5,5 0 0 1 5,5v28a5,5 0 0 1 -5,5h-74.10113525390625a5,5 0 0 1 -5,-5v-28a5,5 0 0 1 5,-5z" style="stroke: rgb(51, 51, 51); fill: none; stroke-width: 1px;"/></g><g id="node-name-Add_31" class="node graph-node" transform="translate(1699.189697265625,34.5)" style="opacity: 1;"><g class="node-item node-item-type" transform="translate(0,0)"><path d="M5,0h73.92926025390625a5,5 0 0 1 5,5v15a0,0 0 0 1 0,0h-83.92926025390625a0,0 0 0 1 0,0v-15a5,5 0 0 1 5,-5z" style="stroke: rgb(0, 0, 0); fill: rgb(0, 0, 0); stroke-width: 0;"/><text x="6" y="13" style="font-family: -apple-system, BlinkMacSystemFont, &quot;Segoe WPC&quot;, &quot;Segoe UI&quot;, Ubuntu, &quot;Droid Sans&quot;, sans-serif, &quot;PingFang SC&quot;; font-size: 11px; text-rendering: geometricprecision; fill: rgb(255, 255, 255);">Add</text><title>Add_31</title></g><g class="node-attribute" transform="translate(0,20)"><path d="M0,0h83.92926025390625a0,0 0 0 1 0,0v13a5,5 0 0 1 -5,5h-73.92926025390625a5,5 0 0 1 -5,-5v-13a0,0 0 0 1 0,0z" style="stroke: rgb(0, 0, 0); fill: rgb(255, 255, 255); stroke-width: 0;"/><text id="initializer-31" xml:space="preserve" x="6" y="12" style="font-family: -apple-system, BlinkMacSystemFont, &quot;Segoe WPC&quot;, &quot;Segoe UI&quot;, Ubuntu, &quot;Droid Sans&quot;, sans-serif, &quot;PingFang SC&quot;; font-size: 9px; font-weight: normal; text-rendering: geometricprecision;"><title>float32</title><tspan>B</tspan><tspan> = 3.40000009…</tspan></text><line class="node" x1="0" x2="83.92926025390625" y1="0" y2="0" style="stroke: rgb(51, 51, 51); fill: none; stroke-width: 1px;"/></g><path class="node border" d="M5,0h73.92926025390625a5,5 0 0 1 5,5v28a5,5 0 0 1 -5,5h-73.92926025390625a5,5 0 0 1 -5,-5v-28a5,5 0 0 1 5,-5z" style="stroke: rgb(51, 51, 51); fill: none; stroke-width: 1px;"/></g><g id="node-name-Add_32" class="node graph-node" transform="translate(1803.1189575195312,83)" style="opacity: 1;"><g class="node-item node-item-type" transform="translate(0,0)"><path d="M5,0h24.109375a5,5 0 0 1 5,5v10a5,5 0 0 1 -5,5h-24.109375a5,5 0 0 1 -5,-5v-10a5,5 0 0 1 5,-5z" style="stroke: rgb(0, 0, 0); fill: rgb(0, 0, 0); stroke-width: 0;"/><text x="6" y="13" style="font-family: -apple-system, BlinkMacSystemFont, &quot;Segoe WPC&quot;, &quot;Segoe UI&quot;, Ubuntu, &quot;Droid Sans&quot;, sans-serif, &quot;PingFang SC&quot;; font-size: 11px; text-rendering: geometricprecision; fill: rgb(255, 255, 255);">Add</text><title>Add_32</title></g><path class="node border" d="M5,0h24.109375a5,5 0 0 1 5,5v10a5,5 0 0 1 -5,5h-24.109375a5,5 0 0 1 -5,-5v-10a5,5 0 0 1 5,-5z" style="stroke: rgb(51, 51, 51); fill: none; stroke-width: 1px;"/></g><g id="node-name-Sin_33" class="node graph-node" transform="translate(1857.2283325195312,63)" style="opacity: 1;"><g class="node-item node-item-type" transform="translate(0,0)"><path d="M5,0h18.953125a5,5 0 0 1 5,5v10a5,5 0 0 1 -5,5h-18.953125a5,5 0 0 1 -5,-5v-10a5,5 0 0 1 5,-5z" style="stroke: rgb(0, 0, 0); fill: rgb(0, 0, 0); stroke-width: 0;"/><text x="6" y="13" style="font-family: -apple-system, BlinkMacSystemFont, &quot;Segoe WPC&quot;, &quot;Segoe UI&quot;, Ubuntu, &quot;Droid Sans&quot;, sans-serif, &quot;PingFang SC&quot;; font-size: 11px; text-rendering: geometricprecision; fill: rgb(255, 255, 255);">Sin</text><title>Sin_33</title></g><path class="node border" d="M5,0h18.953125a5,5 0 0 1 5,5v10a5,5 0 0 1 -5,5h-18.953125a5,5 0 0 1 -5,-5v-10a5,5 0 0 1 5,-5z" style="stroke: rgb(51, 51, 51); fill: none; stroke-width: 1px;"/></g><g id="node-name-Mul_35" class="node graph-node" transform="translate(1906.1814575195312,54)" style="opacity: 1;"><g class="node-item node-item-type" transform="translate(0,0)"><path d="M5,0h65a5,5 0 0 1 5,5v15a0,0 0 0 1 0,0h-75a0,0 0 0 1 0,0v-15a5,5 0 0 1 5,-5z" style="stroke: rgb(0, 0, 0); fill: rgb(0, 0, 0); stroke-width: 0;"/><text x="6" y="13" style="font-family: -apple-system, BlinkMacSystemFont, &quot;Segoe WPC&quot;, &quot;Segoe UI&quot;, Ubuntu, &quot;Droid Sans&quot;, sans-serif, &quot;PingFang SC&quot;; font-size: 11px; text-rendering: geometricprecision; fill: rgb(255, 255, 255);">Mul</text><title>Mul_35</title></g><g class="node-attribute" transform="translate(0,20)"><path d="M0,0h75a0,0 0 0 1 0,0v13a5,5 0 0 1 -5,5h-65a5,5 0 0 1 -5,-5v-13a0,0 0 0 1 0,0z" style="stroke: rgb(0, 0, 0); fill: rgb(255, 255, 255); stroke-width: 0;"/><text id="initializer-35" xml:space="preserve" x="6" y="12" style="font-family: -apple-system, BlinkMacSystemFont, &quot;Segoe WPC&quot;, &quot;Segoe UI&quot;, Ubuntu, &quot;Droid Sans&quot;, sans-serif, &quot;PingFang SC&quot;; font-size: 9px; font-weight: normal; text-rendering: geometricprecision;"><title>float32</title><tspan>A</tspan><tspan> = 4</tspan></text><line class="node" x1="0" x2="75" y1="0" y2="0" style="stroke: rgb(51, 51, 51); fill: none; stroke-width: 1px;"/></g><path class="node border" d="M5,0h65a5,5 0 0 1 5,5v28a5,5 0 0 1 -5,5h-65a5,5 0 0 1 -5,-5v-28a5,5 0 0 1 5,-5z" style="stroke: rgb(51, 51, 51); fill: none; stroke-width: 1px;"/></g><g id="node-name-Add_36" class="node graph-node" transform="translate(2001.1814575195312,98)" style="opacity: 1;"><g class="node-item node-item-type" transform="translate(0,0)"><path d="M5,0h24.109375a5,5 0 0 1 5,5v10a5,5 0 0 1 -5,5h-24.109375a5,5 0 0 1 -5,-5v-10a5,5 0 0 1 5,-5z" style="stroke: rgb(0, 0, 0); fill: rgb(0, 0, 0); stroke-width: 0;"/><text x="6" y="13" style="font-family: -apple-system, BlinkMacSystemFont, &quot;Segoe WPC&quot;, &quot;Segoe UI&quot;, Ubuntu, &quot;Droid Sans&quot;, sans-serif, &quot;PingFang SC&quot;; font-size: 11px; text-rendering: geometricprecision; fill: rgb(255, 255, 255);">Add</text><title>Add_36</title></g><path class="node border" d="M5,0h24.109375a5,5 0 0 1 5,5v10a5,5 0 0 1 -5,5h-24.109375a5,5 0 0 1 -5,-5v-10a5,5 0 0 1 5,-5z" style="stroke: rgb(51, 51, 51); fill: none; stroke-width: 1px;"/></g><g class="node" transform="translate(403.2927551269531,58)" style="opacity: 1;"><g class="node-item graph-item-output" transform="translate(0,0)"><path d="M5,0h10.21875a5,5 0 0 1 5,5v10a5,5 0 0 1 -5,5h-10.21875a5,5 0 0 1 -5,-5v-10a5,5 0 0 1 5,-5z" style="stroke: rgb(0, 0, 0); fill: rgb(238, 238, 238); stroke-width: 0;"/><text x="6" y="13" style="font-family: -apple-system, BlinkMacSystemFont, &quot;Segoe WPC&quot;, &quot;Segoe UI&quot;, Ubuntu, &quot;Droid Sans&quot;, sans-serif, &quot;PingFang SC&quot;; font-size: 11px; text-rendering: geometricprecision;">4</text><title>float32</title></g><path class="node border" d="M5,0h10.21875a5,5 0 0 1 5,5v10a5,5 0 0 1 -5,5h-10.21875a5,5 0 0 1 -5,-5v-10a5,5 0 0 1 5,-5z" style="stroke: rgb(51, 51, 51); fill: none; stroke-width: 1px;"/></g><g class="node" transform="translate(665.2606506347656,87.5)" style="opacity: 1;"><g class="node-item graph-item-output" transform="translate(0,0)"><path d="M5,0h10.21875a5,5 0 0 1 5,5v10a5,5 0 0 1 -5,5h-10.21875a5,5 0 0 1 -5,-5v-10a5,5 0 0 1 5,-5z" style="stroke: rgb(0, 0, 0); fill: rgb(238, 238, 238); stroke-width: 0;"/><text x="6" y="13" style="font-family: -apple-system, BlinkMacSystemFont, &quot;Segoe WPC&quot;, &quot;Segoe UI&quot;, Ubuntu, &quot;Droid Sans&quot;, sans-serif, &quot;PingFang SC&quot;; font-size: 11px; text-rendering: geometricprecision;">9</text><title>float32</title></g><path class="node border" d="M5,0h10.21875a5,5 0 0 1 5,5v10a5,5 0 0 1 -5,5h-10.21875a5,5 0 0 1 -5,-5v-10a5,5 0 0 1 5,-5z" style="stroke: rgb(51, 51, 51); fill: none; stroke-width: 1px;"/></g><g class="node" transform="translate(1363.4134216308594,112.5)" style="opacity: 1;"><g class="node-item graph-item-output" transform="translate(0,0)"><path d="M5,0h16.421875a5,5 0 0 1 5,5v10a5,5 0 0 1 -5,5h-16.421875a5,5 0 0 1 -5,-5v-10a5,5 0 0 1 5,-5z" style="stroke: rgb(0, 0, 0); fill: rgb(238, 238, 238); stroke-width: 0;"/><text x="6" y="13" style="font-family: -apple-system, BlinkMacSystemFont, &quot;Segoe WPC&quot;, &quot;Segoe UI&quot;, Ubuntu, &quot;Droid Sans&quot;, sans-serif, &quot;PingFang SC&quot;; font-size: 11px; text-rendering: geometricprecision;">23</text><title>float32</title></g><path class="node border" d="M5,0h16.421875a5,5 0 0 1 5,5v10a5,5 0 0 1 -5,5h-16.421875a5,5 0 0 1 -5,-5v-10a5,5 0 0 1 5,-5z" style="stroke: rgb(51, 51, 51); fill: none; stroke-width: 1px;"/></g><g class="node" transform="translate(1858.4939575195312,137.5)" style="opacity: 1;"><g class="node-item graph-item-output" transform="translate(0,0)"><path d="M5,0h16.421875a5,5 0 0 1 5,5v10a5,5 0 0 1 -5,5h-16.421875a5,5 0 0 1 -5,-5v-10a5,5 0 0 1 5,-5z" style="stroke: rgb(0, 0, 0); fill: rgb(238, 238, 238); stroke-width: 0;"/><text x="6" y="13" style="font-family: -apple-system, BlinkMacSystemFont, &quot;Segoe WPC&quot;, &quot;Segoe UI&quot;, Ubuntu, &quot;Droid Sans&quot;, sans-serif, &quot;PingFang SC&quot;; font-size: 11px; text-rendering: geometricprecision;">33</text><title>float32</title></g><path class="node border" d="M5,0h16.421875a5,5 0 0 1 5,5v10a5,5 0 0 1 -5,5h-16.421875a5,5 0 0 1 -5,-5v-10a5,5 0 0 1 5,-5z" style="stroke: rgb(51, 51, 51); fill: none; stroke-width: 1px;"/></g><g class="node" transform="translate(2055.2908325195312,98)" style="opacity: 1;"><g class="node-item graph-item-output" transform="translate(0,0)"><path d="M5,0h16.421875a5,5 0 0 1 5,5v10a5,5 0 0 1 -5,5h-16.421875a5,5 0 0 1 -5,-5v-10a5,5 0 0 1 5,-5z" style="stroke: rgb(0, 0, 0); fill: rgb(238, 238, 238); stroke-width: 0;"/><text x="6" y="13" style="font-family: -apple-system, BlinkMacSystemFont, &quot;Segoe WPC&quot;, &quot;Segoe UI&quot;, Ubuntu, &quot;Droid Sans&quot;, sans-serif, &quot;PingFang SC&quot;; font-size: 11px; text-rendering: geometricprecision;">37</text><title>float32</title></g><path class="node border" d="M5,0h16.421875a5,5 0 0 1 5,5v10a5,5 0 0 1 -5,5h-16.421875a5,5 0 0 1 -5,-5v-10a5,5 0 0 1 5,-5z" style="stroke: rgb(51, 51, 51); fill: none; stroke-width: 1px;"/></g></g></g></svg>
